<?xml version="1.0" encoding="UTF-8" standalone="yes"?>
<svg xmlns="http://www.w3.org/2000/svg" xmlns:xlink="http://www.w3.org/1999/xlink" width="64" height="64" viewBox="0 0 64 64" version="1.1">
  <g id="surface1">
    <path style=" stroke:none;fill-rule:nonzero;fill:rgb(95.294118%,95.294118%,95.294118%);fill-opacity:1;" d="M 52 12 L 0 12 L 12 0 L 64 0 Z M 52 12 "/>
    <path style=" stroke:none;fill-rule:nonzero;fill:rgb(73.333335%,73.333335%,73.333335%);fill-opacity:1;" d="M 64 52 L 52 64 L 52 12 L 64 0 Z M 64 52 "/>
    <path style=" stroke:none;fill-rule:nonzero;fill:rgb(85.09804%,85.09804%,85.09804%);fill-opacity:1;" d="M 0 12 L 0 64 L 52 64 L 52 12 Z M 26 56 C 16.058594 56 8 47.941406 8 38 C 8 28.058594 16.058594 20 26 20 C 35.941406 20 44 28.058594 44 38 C 44 47.941406 35.941406 56 26 56 Z M 26 56 "/>
    <path style=" stroke:none;fill-rule:nonzero;fill:rgb(53.725493%,79.607844%,98.039216%);fill-opacity:1;" d="M 38 40 C 29.160156 40 22 32.839844 22 24 C 22 23.5 22.019531 23 22.078125 22.5 C 15.140625 24.261719 10 30.519531 10 38 C 10 46.839844 17.160156 54 26 54 C 34.339844 54 41.160156 47.621094 41.921875 39.5 C 40.660156 39.820312 39.359375 40 38 40 Z M 38 40 "/>
  </g>
</svg>